# File created by Blade
# Date/Time:  Thu Sep 25 15:31:15 2014
# Frame Rate: 120.000 fps
#------------------------------------------------------
:FULLY-SPECIFIED
:DEGREES
1376
root -20.911480 32.619929 -3.178617 189.847506 32.049772 -180.026522
Spine 6.815769 10.878129 7.433901
Head -42.402221 -8.958927 10.979347
LeftShoulder -5.426101 27.615698 12.619376
LeftArm 34.021409 32.494869 -56.586231
LeftForeArm 3.969246 0.000000 85.997565
LeftHand -19.905723 -0.000000 -18.334276
LeftHandThumb1 -26.253704 0.000000 33.147579
RightShoulder -10.357309 10.139306 -19.743522
RightArm -1.405668 -46.912334 83.397982
RightForeArm -14.276598 -0.000000 67.899400
RightHand 0.095868 0.000000 9.649807
RightHandThumb1 -24.326973 -0.000000 -32.862282
LeftUpLeg -28.309520 -0.952153 7.319219
LeftLeg 43.518622 -0.000000 -0.000000
LeftFoot -24.248200 15.229305 -28.791894
LeftToeBase -6.693847 -0.000000 0.000000
RightUpLeg -14.238694 -9.210128 8.061647
RightLeg 16.997688 -0.000000 -0.000000
RightFoot -13.436766 -16.316980 -9.521310
RightToeBase -2.271533 -0.000000 0.000000
1377
root -20.779736 32.610063 -3.377184 189.774095 32.982159 -179.833616
Spine 6.693043 11.067280 7.336022
Head -41.858686 -8.654553 10.959506
LeftShoulder -5.689149 27.774953 12.646619
LeftArm 34.109111 32.695874 -56.264952
LeftForeArm 3.750308 -0.000000 87.395858
LeftHand -19.920937 -0.000000 -18.742615
LeftHandThumb1 -26.253704 0.000000 33.147579
RightShoulder -10.511596 9.866719 -19.833364
RightArm -1.811145 -47.251892 83.375882
RightForeArm -13.769223 -0.000000 69.371705
RightHand 0.177738 0.000000 10.748612
RightHandThumb1 -24.326973 -0.000000 -32.862282
LeftUpLeg -28.423897 -1.409209 7.781372
LeftLeg 41.527960 -0.000000 -0.000000
LeftFoot -24.143005 15.193521 -28.822010
LeftToeBase -7.126916 -0.000000 0.000000
RightUpLeg -13.553934 -8.793420 8.014414
RightLeg 16.899613 -0.000000 -0.000000
RightFoot -13.815229 -15.932447 -9.259643
RightToeBase -2.118473 -0.000000 0.000000
1378
root -20.646809 32.601226 -3.575296 189.745765 33.985958 -179.623110
Spine 6.543963 11.321825 7.250666
Head -41.326056 -8.358490 10.914572
LeftShoulder -5.930856 28.041010 12.651698
LeftArm 34.317595 32.850074 -55.898618
LeftForeArm 3.503936 0.000000 88.675107
LeftHand -19.892583 -0.000000 -19.560373
LeftHandThumb1 -26.253704 0.000000 33.147579
RightShoulder -10.726622 9.540624 -19.966370
RightArm -2.148520 -47.638161 83.347567
RightForeArm -13.064118 -0.000000 70.818784
RightHand 0.196800 -0.000000 11.761970
RightHandThumb1 -24.326973 -0.000000 -32.862282
LeftUpLeg -28.468536 -2.024647 8.344063
LeftLeg 39.396834 -0.000000 -0.000000
LeftFoot -24.078115 15.805342 -28.233434
LeftToeBase -6.703989 -0.000000 0.000000
RightUpLeg -12.946113 -8.359532 7.966635
RightLeg 16.882970 -0.000000 -0.000000
RightFoot -13.911289 -15.598684 -9.607229
RightToeBase -2.723900 -0.000000 0.000000
1379
root -20.517123 32.593268 -3.777054 189.656714 35.005746 -179.464061
Spine 6.460342 11.511702 7.116979
Head -40.822732 -7.993155 10.902069
LeftShoulder -6.186886 28.171552 12.626267
LeftArm 34.352605 32.952213 -55.645514
LeftForeArm 3.277825 -0.000000 89.798086
LeftHand -20.015841 -0.000000 -20.672664
LeftHandThumb1 -26.253704 0.000000 33.147579
RightShoulder -10.901602 9.238390 -20.037057
RightArm -2.469506 -47.998671 83.230047
RightForeArm -12.436503 0.000000 72.305622
RightHand 0.250564 0.000000 12.962370
RightHandThumb1 -24.326973 -0.000000 -32.862282
LeftUpLeg -28.415356 -2.508209 8.832286
LeftLeg 37.096645 -0.000000 -0.000000
LeftFoot -23.820995 16.359292 -27.966848
LeftToeBase -6.589406 -0.000000 0.000000
RightUpLeg -12.321570 -7.892549 7.860321
RightLeg 16.967233 -0.000000 -0.000000
RightFoot -14.202348 -15.182722 -9.485542
RightToeBase -2.901027 -0.000000 0.000000
1380
root -20.380114 32.579450 -3.964164 189.846760 35.919090 -179.052060
Spine 6.190062 11.583751 7.252913
Head -40.211452 -7.610798 10.730821
LeftShoulder -6.443814 28.369451 12.571828
LeftArm 34.402304 33.079750 -55.470382
LeftForeArm 2.888147 0.000000 90.795890
LeftHand -20.274276 -0.000000 -21.376251
LeftHandThumb1 -26.253704 0.000000 33.147579
RightShoulder -11.031975 8.914179 -20.273237
RightArm -2.916639 -48.298721 83.278829
RightForeArm -11.632237 0.000000 73.797564
RightHand 0.231241 -0.000000 14.228939
RightHandThumb1 -24.326973 -0.000000 -32.862282
LeftUpLeg -28.504863 -3.040589 9.607762
LeftLeg 34.788321 -0.000000 -0.000000
LeftFoot -23.488509 16.792026 -27.924724
LeftToeBase -6.572311 -0.000000 0.000000
RightUpLeg -11.843777 -7.369425 8.001028
RightLeg 17.044996 -0.000000 -0.000000
RightFoot -14.370757 -14.884322 -9.315002
RightToeBase -3.274878 -0.000000 0.000000
1381
root -20.252027 32.568435 -4.156891 189.929623 36.891321 -178.742994
Spine 6.024676 11.651182 7.295771
Head -39.648928 -7.175462 10.602580
LeftShoulder -6.631198 28.513318 12.528647
LeftArm 34.320019 33.092711 -55.465263
LeftForeArm 2.699674 -0.000000 91.611123
LeftHand -20.037369 -0.000000 -22.271038
LeftHandThumb1 -26.253704 0.000000 33.147579
RightShoulder -11.208791 8.616006 -20.467813
RightArm -3.210287 -48.762012 83.153303
RightForeArm -10.878474 0.000000 75.214266
RightHand 0.344045 -0.000000 15.324609
RightHandThumb1 -24.326973 -0.000000 -32.862282
LeftUpLeg -28.448574 -3.504749 10.265841
LeftLeg 32.314128 -0.000000 -0.000000
LeftFoot -23.080537 17.432492 -27.800137
LeftToeBase -6.431419 -0.000000 0.000000
RightUpLeg -11.334529 -6.866084 8.014883
RightLeg 17.143877 -0.000000 -0.000000
RightFoot -14.510529 -14.525313 -9.391455
RightToeBase -3.628075 -0.000000 0.000000
